<mxfile host="65bd71144e" scale="1" border="20">
    <diagram id="Nph7hZh59vP3e4tq-aq7" name="第 1 页">
        <mxGraphModel dx="583" dy="580" grid="1" gridSize="10" guides="1" tooltips="1" connect="1" arrows="1" fold="1" page="1" pageScale="1" pageWidth="827" pageHeight="1169" background="#FFFFFF" math="0" shadow="0">
            <root>
                <mxCell id="0"/>
                <mxCell id="1" parent="0"/>
                <mxCell id="2" value="Stack" style="swimlane;fontFamily=Comic Sans MS;fontSize=16;" vertex="1" parent="1">
                    <mxGeometry x="110" y="190" width="200" height="200" as="geometry"/>
                </mxCell>
                <mxCell id="3" value="ptr" style="rounded=1;whiteSpace=wrap;html=1;fontFamily=Comic Sans MS;fontSize=16;" vertex="1" parent="2">
                    <mxGeometry x="50" y="50" width="70" height="30" as="geometry"/>
                </mxCell>
                <mxCell id="6" value="length" style="rounded=1;whiteSpace=wrap;html=1;fontFamily=Comic Sans MS;fontSize=16;" vertex="1" parent="2">
                    <mxGeometry x="50" y="80" width="70" height="30" as="geometry"/>
                </mxCell>
                <mxCell id="7" value="capacity" style="rounded=1;whiteSpace=wrap;html=1;fontFamily=Comic Sans MS;fontSize=16;" vertex="1" parent="2">
                    <mxGeometry x="50" y="110" width="70" height="30" as="geometry"/>
                </mxCell>
                <mxCell id="8" value="Heap" style="swimlane;fontFamily=Comic Sans MS;fontSize=16;" vertex="1" parent="1">
                    <mxGeometry x="370" y="190" width="200" height="200" as="geometry"/>
                </mxCell>
                <mxCell id="9" value="1" style="rounded=1;whiteSpace=wrap;html=1;fontFamily=Comic Sans MS;fontSize=16;" vertex="1" parent="8">
                    <mxGeometry x="50" y="50" width="70" height="30" as="geometry"/>
                </mxCell>
                <mxCell id="10" value="2" style="rounded=1;whiteSpace=wrap;html=1;fontFamily=Comic Sans MS;fontSize=16;" vertex="1" parent="8">
                    <mxGeometry x="50" y="80" width="70" height="30" as="geometry"/>
                </mxCell>
                <mxCell id="11" value="3" style="rounded=1;whiteSpace=wrap;html=1;fontFamily=Comic Sans MS;fontSize=16;" vertex="1" parent="8">
                    <mxGeometry x="50" y="110" width="70" height="30" as="geometry"/>
                </mxCell>
                <mxCell id="12" style="edgeStyle=none;html=1;exitX=1;exitY=0.5;exitDx=0;exitDy=0;entryX=0;entryY=0.5;entryDx=0;entryDy=0;fontFamily=Comic Sans MS;fontSize=16;" edge="1" parent="1" source="3" target="9">
                    <mxGeometry relative="1" as="geometry"/>
                </mxCell>
            </root>
        </mxGraphModel>
    </diagram>
</mxfile>